<?xml version="1.0" encoding="utf-8"?>
<!-- Generator: Adobe Illustrator 21.0.0, SVG Export Plug-In . SVG Version: 6.00 Build 0)  -->
<svg version="1.1" id="Capa_1" xmlns="http://www.w3.org/2000/svg" xmlns:xlink="http://www.w3.org/1999/xlink" x="0px" y="0px"
	 viewBox="0 0 1200 685" style="enable-background:new 0 0 1200 685;" xml:space="preserve">
<style type="text/css">
	.st0{fill:#211915;}
	.st1{fill:#760059;}
</style>
<g>
	<g>
		<path class="st0" d="M315.4,507.2v-47.4h32.2c17.3,0,26,7.2,26,22.8c0,19.4-11.5,24.6-34.7,24.6H315.4z M297,521.1h45.8
			c32.9,0,49.6-12.4,49.6-37.7c0-23.2-15.4-37.2-45-37.2H297V521.1z"/>
		<path class="st0" d="M411.9,446.3h80.3v13.3h-62v16.2h36.1v12.9h-36.1v18.4h62.9v14h-81.2V446.3z"/>
		<path class="st0" d="M517.6,446.3h18.4v60.9h58.8v14h-77.2V446.3z"/>
		<path class="st0" d="M628,459.8v15.7h48.7c14.9,0,19.5,3.5,19.5,17.7v10.3c0,14-4.6,17.7-19.5,17.7H628
			c-14.8,0-19.6-3.7-19.6-17.7v-2.2l16.2-3v8.9h55.1V490h-48.5c-14.7,0-19.6-3.5-19.6-17.7V464c0-14.2,5-17.7,19.6-17.7h44.4
			c13.8,0,19.7,3.2,19.7,16.3v1.8l-15.7,3.4v-7.9H628z"/>
		<path class="st0" d="M743.8,491l16.8-31.1l17.5,31.1H743.8z M708.4,521.1h18.2l9.4-16.5h49.6l9.4,16.5h20.5l-45.1-74.9h-17.5
			L708.4,521.1z"/>
		<path class="st0" d="M866.7,521.1h-18.2v-61.4h-36.1v-13.5H903v13.5h-36.3V521.1z"/>
	</g>
	<g>
		<path class="st1" d="M426.5,176.1c22.2-80.8,186.5-88,232.4-88.4c3.5,0-0.6,0,1.4,0c0,5.5,0,27.3,0,33c-2.4,0,1.2-0.1-2.9,0
			c-29.5,0.5-98.2,5.7-123.5,41.9l-3.3,5.5c0,0.1-0.7,1.3-0.7,1.3c-3.3,6.2-5.4,12.9-6.1,20l0,0.2l0.1,0.5c0,0,0,108.5,0,115.6
			c-6.8,0-92.3,0-99.1,0c0-7.1,0-115.2,0-115.2c0-0.3,0-0.8,0-0.8c0-4.1,0.6-8.7,1.7-13.2C426.3,176.6,426.5,176.1,426.5,176.1z"/>
		<path class="st1" d="M785.4,146.3c0,7.1,0,125.2,0,125.2s0,0.3,0.1,0.4c-0.1,4.5-0.6,9-1.7,13.3c-0.1,0.1-0.1,0.3-0.1,0.3
			c-22.5,81.8-189.7,88.4-233.7,88.7c-2.9,0-12.1,0-13.8,0c0-5.5,0-27.3,0-33c1.7,0,10.9,0,13.5,0c27.5-0.2,100.4-4.4,126.7-42
			l3.4-5.6c0,0,0.6-1.3,0.6-1.3c3.4-6.3,5.4-13,6.1-20l0-0.2l0-0.4c0,0,0-118.3,0-125.4C693.1,146.3,778.6,146.3,785.4,146.3z"/>
		<path class="st1" d="M439.8,318.7c-17.7,5.4-30.5,20.6-30.5,38.4c0,17.8,12.8,32.9,30.5,38.3c-6.8-11.4-10.7-24.5-10.7-38.3
			C429.1,343.2,433,330.1,439.8,318.7z"/>
		<path class="st1" d="M480,322.5c-15.9,4.9-27.5,18.5-27.5,34.5c0,16,11.5,29.6,27.5,34.5c-6.2-10.3-9.7-22-9.7-34.5
			C470.3,344.6,473.8,332.8,480,322.5z"/>
		<path class="st1" d="M520.4,326c-14.4,4.5-24.7,16.7-24.7,31.1c0,14.4,10.4,26.6,24.7,31.1c-5.6-9.3-8.7-19.9-8.7-31.1
			C511.7,345.8,514.8,335.2,520.4,326z"/>
		<path class="st1" d="M702.6,104.3c0,8.4-6.8,15.2-15.2,15.2c-8.5,0-15.3-6.9-15.3-15.2c0-8.5,6.8-15.2,15.3-15.2
			C695.8,89.1,702.6,95.9,702.6,104.3z"/>
		<path class="st1" d="M750.7,104.3c0,10.6-8.6,19.2-19.2,19.2c-10.5,0-19.2-8.6-19.2-19.2c0-10.6,8.6-19.2,19.2-19.2
			C742.2,85.2,750.7,93.7,750.7,104.3z"/>
		<path class="st1" d="M808.1,104.3c0,13.1-10.6,23.6-23.6,23.6c-13,0-23.6-10.5-23.6-23.6s10.6-23.6,23.6-23.6
			C797.5,80.7,808.1,91.3,808.1,104.3z"/>
	</g>
</g>
</svg>
